static pose
nRows=1
nColumns=258

# File generated from solving marker data for model GIL06
name static pose
datacolumns 258
datarows 1
otherdata 1
range 0.250000 0.250000
endheader
time	pelvis_tx	pelvis_ty	pelvis_tz	pelvis_tilt	pelvis_list	pelvis_rotation	hip_flexion_r	hip_adduction_r	hip_rotation_r	knee_angle_r	ankle_angle_r	hip_flexion_l	hip_adduction_l	hip_rotation_l	knee_angle_l	ankle_angle_l	lumbar_extension	lumbar_bending	lumbar_rotation	subtalar_angle_r	mtp_angle_r	subtalar_angle_l	mtp_angle_l	midhip_tx	midhip_ty	midhip_tz	hip_r_tx	hip_r_ty	hip_r_tz	hip_l_tx	hip_l_ty	hip_l_tz	knee_r_tx	knee_r_ty	knee_r_tz	knee_l_tx	knee_l_ty	knee_l_tz	ankle_r_tx	ankle_r_ty	ankle_r_tz	ankle_l_tx	ankle_l_ty	ankle_l_tz	midasis_tx	midasis_ty	midasis_tz	asis_r_tx	asis_r_ty	asis_r_tz	asis_l_tx	asis_l_ty	asis_l_tz	psis_r_tx	psis_r_ty	psis_r_tz	psis_l_tx	psis_l_ty	psis_l_tz	epicondLat_r_tx	epicondLat_r_ty	epicondLat_r_tz	epicondLat_l_tx	epicondLat_l_ty	epicondLat_l_tz	epicondMed_r_tx	epicondMed_r_ty	epicondMed_r_tz	epicondMed_l_tx	epicondMed_l_ty	epicondMed_l_tz	malleolusLat_r_tx	malleolusLat_r_ty	malleolusLat_r_tz	malleolusLat_l_tx	malleolusLat_l_ty	malleolusLat_l_tz	malleolusMedv_r_tx	malleolusMedv_r_ty	malleolusMedv_r_tz	malleolusMedv_l_tx	malleolusMedv_l_ty	malleolusMedv_l_tz	heel_r_tx	heel_r_ty	heel_r_tz	heel_l_tx	heel_l_ty	heel_l_tz	sternalnotch_tx	sternalnotch_ty	sternalnotch_tz	xyphoidprocess_tx	xyphoidprocess_ty	xyphoidprocess_tz	neck_tx	neck_ty	neck_tz	subclavicle_r_tx	subclavicle_r_ty	subclavicle_r_tz	subclavicle_l_tx	subclavicle_l_ty	subclavicle_l_tz	toe_r_tx	toe_r_ty	toe_r_tz	toe_l_tx	toe_l_ty	toe_l_tz	thighwand_r_tx	thighwand_r_ty	thighwand_r_tz	thighwand_l_tx	thighwand_l_ty	thighwand_l_tz	upperleg1_r_tx	upperleg1_r_ty	upperleg1_r_tz	upperleg1_l_tx	upperleg1_l_ty	upperleg1_l_tz	upperleg2_r_tx	upperleg2_r_ty	upperleg2_r_tz	upperleg2_l_tx	upperleg2_l_ty	upperleg2_l_tz	shankwand_r_tx	shankwand_r_ty	shankwand_r_tz	shankwand_l_tx	shankwand_l_ty	shankwand_l_tz	lowerleg1_r_tx	lowerleg1_r_ty	lowerleg1_r_tz	lowerleg1_l_tx	lowerleg1_l_ty	lowerleg1_l_tz	ground_marker_px	ground_marker_py	ground_marker_pz	ground_marker_px	ground_marker_py	ground_marker_pz	ground_marker_px	ground_marker_py	ground_marker_pz	ground_marker_px	ground_marker_py	ground_marker_pz	ground_marker_px	ground_marker_py	ground_marker_pz	ground_marker_px	ground_marker_py	ground_marker_pz	ground_marker_px	ground_marker_py	ground_marker_pz	ground_marker_px	ground_marker_py	ground_marker_pz	ground_marker_px	ground_marker_py	ground_marker_pz	ground_marker_px	ground_marker_py	ground_marker_pz	ground_marker_px	ground_marker_py	ground_marker_pz	ground_marker_px	ground_marker_py	ground_marker_pz	ground_marker_px	ground_marker_py	ground_marker_pz	ground_marker_px	ground_marker_py	ground_marker_pz	ground_marker_px	ground_marker_py	ground_marker_pz	ground_marker_px	ground_marker_py	ground_marker_pz	ground_marker_px	ground_marker_py	ground_marker_pz	ground_marker_px	ground_marker_py	ground_marker_pz	ground_marker_px	ground_marker_py	ground_marker_pz	ground_marker_px	ground_marker_py	ground_marker_pz	ground_marker_px	ground_marker_py	ground_marker_pz	ground_marker_px	ground_marker_py	ground_marker_pz	ground_marker_px	ground_marker_py	ground_marker_pz	ground_marker_px	ground_marker_py	ground_marker_pz	ground_marker_px	ground_marker_py	ground_marker_pz	ground_marker_px	ground_marker_py	ground_marker_pz	ground_marker_px	ground_marker_py	ground_marker_pz	ground_marker_px	ground_marker_py	ground_marker_pz	ground_marker_px	ground_marker_py	ground_marker_pz	ground_marker_px	ground_marker_py	ground_marker_pz	ground_marker_px	ground_marker_py	ground_marker_pz	ground_marker_px	ground_marker_py	ground_marker_pz	ground_marker_px	ground_marker_py	ground_marker_pz	ground_marker_px	ground_marker_py	ground_marker_pz	ground_marker_px	ground_marker_py	ground_marker_pz	ground_marker_px	ground_marker_py	ground_marker_pz	ground_marker_px	ground_marker_py	ground_marker_pz	ground_marker_px	ground_marker_py	ground_marker_pz	ground_marker_px	ground_marker_py	ground_marker_pz
  0.25000000	  0.80493476	  0.86508875	 -0.23734845	 -1.29292231	  0.31140318	  0.16488162	  0.07507324	 -2.78738507	  0.01413849	  0.01625752	 -0.00007077	  0.75020996	 -2.98511929	  0.01074112	  0.20434125	  0.00005772	 -3.91536794	 -3.47652095	  7.44152040	  0.00000000	  0.00000000	  0.00000000	  0.00000000	  0.74685633	  0.78497336	 -0.24410435	  0.72657569	  0.79049383	 -0.16470438	  0.72528196	  0.79082492	 -0.32032473	  0.72233124	  0.41974116	 -0.15449401	  0.73276521	  0.42913985	 -0.33327437	  0.71629073	  0.05901912	 -0.11709545	  0.72651476	  0.05685195	 -0.36845524	  0.86117975	  0.85199502	 -0.24350969	  0.86220246	  0.85173352	 -0.12055390	  0.86015706	  0.85225647	 -0.36646548	  0.62371583	  0.94420366	 -0.20754439	  0.61899272	  0.94274221	 -0.26256668	  0.72876634	  0.42168358	 -0.08130247	  0.72605844	  0.43162015	 -0.40642462	  0.70890891	  0.42520165	 -0.22501295	  0.72913749	  0.40920490	 -0.25954238	  0.70588403	  0.06322786	 -0.07818247	  0.70256739	  0.06043905	 -0.40215772	  0.72221603	  0.06687405	 -0.15307605	  0.72283896	  0.07262299	 -0.32577937	  0.65382770	  0.04979719	 -0.12469150	  0.67235220	  0.04738652	 -0.33431226	  0.78548387	  1.28814437	 -0.26460215	  0.84305138	  1.21885272	 -0.26497012	  0.66755930	  1.35184121	 -0.24688475	  0.80338369	  1.29499248	 -0.21198216	  0.80096241	  1.29483147	 -0.29387672	  0.82453408	  0.04371049	 -0.10472728	  0.82201870	  0.04822321	 -0.38325200	  0.88990280	  0.57279624	 -0.09037009	  0.90951553	  0.60459783	 -0.34777197	  0.85153317	  0.59520317	 -0.11061419	  0.86223394	  0.62103166	 -0.35156288	  0.82287160	  0.52294611	 -0.11476725	  0.84397749	  0.54944599	 -0.35237061	  0.80031998	  0.20861723	 -0.10378184	  0.68625894	  0.17559507	 -0.46007482	  0.75485630	  0.21458611	 -0.11707655	  0.69245302	  0.18450612	 -0.41240328	  0.74215245	  0.78520238	 -0.24363296	  0.72102374	  0.79057360	 -0.16442658	  0.72122967	  0.79101980	 -0.32005489	  0.71981710	  0.41982624	 -0.15306205	  0.73257667	  0.42930341	 -0.33298504	  0.71602815	  0.05909435	 -0.11661468	  0.72647280	  0.05671541	 -0.36855978	  0.85591614	  0.85315752	 -0.24188361	  0.85575330	  0.85280472	 -0.11883459	  0.85607892	  0.85351032	 -0.36493263	  0.61889565	  0.94314975	 -0.20763497	  0.61313921	  0.94194770	 -0.26206079	  0.72658598	  0.42204657	 -0.07990808	  0.72568661	  0.43170169	 -0.40612209	  0.70757729	  0.42410904	 -0.22358602	  0.72753954	  0.40956616	 -0.25813830	  0.70577693	  0.06313962	 -0.07764290	  0.70242935	  0.06032057	 -0.40219262	  0.72188276	  0.06673124	 -0.15252985	  0.72194815	  0.07199039	 -0.32553938	  0.65348923	  0.05014260	 -0.12466300	  0.67230356	  0.04730396	 -0.33437592	  0.77759236	  1.28917718	 -0.26430529	  0.83605558	  1.22063124	 -0.26474059	  0.65827590	  1.35161757	 -0.24765646	  0.79554236	  1.29631972	 -0.21193355	  0.79291219	  1.29603112	 -0.29343742	  0.82455468	  0.04377709	 -0.10453099	  0.82205260	  0.04848233	 -0.38325474	  0.88655883	  0.57463670	 -0.08860601	  0.90761739	  0.60674775	 -0.34662938	  0.84755892	  0.59625643	 -0.10939514	  0.86005181	  0.62200379	 -0.35022539	  0.81986433	  0.52395028	 -0.11326183	  0.84178007	  0.54992986	 -0.35111389	  0.79925752	  0.20903091	 -0.10339805	  0.68626726	  0.17542884	 -0.46017748	  0.75361675	  0.21448943	 -0.11655303	  0.69206083	  0.18426588	 -0.41172010
